<?xml version="1.0" encoding="UTF-8" standalone="no"?>
<!-- Created with Inkscape (http://www.inkscape.org/) -->

<svg
   width="100mm"
   height="100mm"
   viewBox="0 0 100 100"
   version="1.1"
   id="svg1"
   inkscape:version="1.4 (e7c3feb1, 2024-10-09)"
   sodipodi:docname="logoFullCoverHover.svg"
   xmlns:inkscape="http://www.inkscape.org/namespaces/inkscape"
   xmlns:sodipodi="http://sodipodi.sourceforge.net/DTD/sodipodi-0.dtd"
   xmlns="http://www.w3.org/2000/svg"
   xmlns:svg="http://www.w3.org/2000/svg">
  <sodipodi:namedview
     id="namedview1"
     pagecolor="#ffffff"
     bordercolor="#000000"
     borderopacity="0.25"
     inkscape:showpageshadow="2"
     inkscape:pageopacity="0.0"
     inkscape:pagecheckerboard="0"
     inkscape:deskcolor="#d1d1d1"
     inkscape:document-units="mm"
     inkscape:zoom="1"
     inkscape:cx="161.5"
     inkscape:cy="161"
     inkscape:window-width="1512"
     inkscape:window-height="921"
     inkscape:window-x="0"
     inkscape:window-y="61"
     inkscape:window-maximized="0"
     inkscape:current-layer="layer1" />
  <defs
     id="defs1" />
  <g
     inkscape:label="Layer 1"
     inkscape:groupmode="layer"
     id="layer1">
    <rect
       style="display:none;fill:#f0f4f5;fill-opacity:1;stroke:none;stroke-width:0.357883;stroke-opacity:1"
       id="rect47"
       width="97.510414"
       height="97.510414"
       x="1.2447929"
       y="1.2447929"
       ry="18.899815" />
    <g
       id="g48"
       style="display:inline"
       transform="matrix(1.1564001,0,0,1.1564001,-74.939187,-99.464638)">
      <g
         id="g49"
         transform="translate(-1.3812853,0.58514112)">
        <path
           id="text1"
           style="font-size:70.5556px;font-family:Oi;-inkscape-font-specification:Oi;text-align:end;text-anchor:end;fill:#1a3840;fill-opacity:1;stroke-width:0.251573"
           d="m 116.37198,113.63129 -18.312937,14.17366 v 10.22828 c -0.233467,1.79919 -0.388994,3.93235 -0.46682,6.39981 -0.03895,2.46745 -2.9e-5,4.85803 0.1167,7.17126 0.116739,2.26183 0.272266,4.08679 0.46683,5.47474 1.439719,-0.20563 3.229607,-0.46247 5.369737,-0.77089 2.17902,-0.30844 4.35818,-0.4631 6.53721,-0.4631 1.71211,0 3.15205,0.0774 4.31939,0.23154 1.20624,0.15423 2.27617,0.30833 3.21005,0.46254 0.93387,0.20563 1.8679,0.38568 2.80177,0.53991 0.27238,-1.38795 0.4668,-3.21291 0.58354,-5.47474 0.11676,-2.31323 0.1364,-4.70381 0.0585,-7.17126 -0.0388,-2.46746 -0.19486,-4.60062 -0.46724,-6.39981 V 127.3921 h 2.15969 v 10.64113 c -0.23346,1.79919 -0.38899,3.93235 -0.46683,6.39981 -0.0389,2.46745 -2e-5,4.85803 0.1167,7.17126 0.11674,2.26183 0.27228,4.08679 0.46683,5.47474 1.43973,-0.20563 3.38515,-0.46247 5.83656,-0.77089 2.45143,-0.25703 5.27277,-0.38573 8.4635,-0.38573 2.95726,0 5.46714,0.1287 7.52943,0.38573 2.0623,0.30842 3.83254,0.56526 5.31117,0.77089 0.38912,-1.64497 0.66173,-3.59862 0.81737,-5.86047 0.15565,-2.26183 0.19452,-4.5237 0.1167,-6.78553 -0.0389,-2.26184 -0.23375,-4.13817 -0.58395,-5.62892 -0.54476,-0.25704 -1.10877,-0.71934 -1.69244,-1.3876 -0.54477,-0.66827 -0.99212,-1.67078 -1.34234,-3.00732 -0.35019,-1.38794 -0.52538,-3.26428 -0.52538,-5.62893 0,-2.159 0.097,-4.31814 0.29154,-6.47717 0.19454,-2.21042 0.31161,-4.39496 0.35055,-6.55399 0.0389,-2.21041 -0.21405,-4.36955 -0.7588,-6.47718 -0.89496,-3.64977 -2.27636,-6.06574 -4.14411,-7.24806 -1.82883,-1.18233 -4.29982,-1.77333 -7.41272,-1.77333 -3.61875,0 -6.98447,1.33612 -10.09738,4.00919 -3.07399,2.62168 -3.81722,9.6134 -7.35415,10.33277 -0.49043,0.0998 -1.29872,-0.96121 -1.29872,-0.96121 z"
           sodipodi:nodetypes="cccccccscccccccccccccsccsccccsccccscac" />
        <path
           id="path5"
           style="font-size:70.5556px;font-family:Oi;-inkscape-font-specification:Oi;text-align:end;text-anchor:end;fill:#0f1516;fill-opacity:1;stroke-width:0.251573"
           d="m 109.44061,100.25054 c -4.82501,0 -8.69663,1.41345 -11.614977,4.24074 -2.879442,2.77589 -4.844519,6.45122 -5.895125,11.02629 -0.116735,-1.43935 -0.01931,-3.10965 0.291978,-5.01164 0.350202,-1.902 0.797567,-3.70156 1.342327,-5.39793 0.583671,-1.74778 1.128457,-2.98117 1.634305,-3.70085 -1.517543,0.10285 -3.48262,0.20555 -5.895125,0.30836 -2.373594,0.0515 -4.902684,0.0768 -7.587568,0.0768 -2.140126,0 -4.338499,-0.0767 -6.595358,-0.23097 -2.256858,-0.20563 -4.299703,-0.46247 -6.128535,-0.7709 -0.466936,1.49076 -0.797653,3.39249 -0.992212,5.70572 -0.155646,2.31324 -0.1753,4.65244 -0.05857,7.01709 0.155644,2.31324 0.428252,4.31771 0.817365,6.01407 0.389115,0.0514 0.836481,0.38558 1.342328,1.00245 0.505847,0.61687 0.953213,1.67074 1.342327,3.1615 0.428025,1.43936 0.642094,3.46979 0.642094,6.09146 0,3.08431 -0.3696,5.29481 -1.108917,6.63135 -0.739315,1.28513 -1.556708,2.08218 -2.451671,2.39061 -0.31129,1.49075 -0.505704,3.36651 -0.583526,5.62835 -0.07782,2.26183 -0.03894,4.5237 0.116705,6.78553 0.194557,2.26185 0.486391,4.2155 0.875505,5.86047 1.595366,-0.25703 3.521559,-0.51387 5.778419,-0.77089 2.295771,-0.25703 4.766751,-0.38573 7.412723,-0.38573 2.56815,0 4.669103,0.0514 6.30338,0.15418 1.673189,0.15422 3.074253,0.30832 4.202681,0.46253 1.128431,0.20563 2.159465,0.38569 3.093338,0.53991 0.272379,-1.38794 0.466794,-3.2129 0.583528,-5.47474 0.116736,-2.31323 0.136388,-4.70381 0.05857,-7.17126 -0.03891,-2.46746 -0.194443,-4.60062 -0.466821,-6.39981 V 127.3921 h 1.930132 l 18.62927,-14.41763 c 1.56474,-1.06679 3.77322,-3.69486 3.6042,-6.32412 -0.15838,-2.46387 -2.33453,-4.26654 -4.08556,-5.08901 -1.751,-0.87389 -3.93015,-1.3108 -6.53721,-1.3108 z"
           sodipodi:nodetypes="sccccccscccccscsccscccscccccccccacss" />
      </g>
    </g>
    <g
       id="g47"
       transform="translate(-32.429801,-294.03967)"
       style="display:none">
      <rect
         style="fill:#0f1516;fill-opacity:1;stroke:#0f1516;stroke-width:0.240905;stroke-opacity:1"
         id="rect46"
         width="24.570034"
         height="47.866028"
         x="5.298171"
         y="-294.66574"
         transform="scale(1,-1)" />
      <rect
         style="fill:#234c58;fill-opacity:1;stroke:#234c58;stroke-width:0.240905;stroke-opacity:1"
         id="rect46-6"
         width="24.570034"
         height="47.866028"
         x="56.115322"
         y="246.79971" />
      <rect
         style="fill:#1a3840;fill-opacity:1;stroke:#1a3840;stroke-width:0.240905;stroke-opacity:1"
         id="rect46-6-7"
         width="24.570034"
         height="47.866028"
         x="30.706747"
         y="246.79971" />
      <rect
         style="fill:#3a7a8e;fill-opacity:1;stroke:#0f1516;stroke-width:0.240905;stroke-opacity:1"
         id="rect46-7"
         width="24.570034"
         height="47.866028"
         x="81.523895"
         y="-294.66574"
         transform="scale(1,-1)" />
      <rect
         style="fill:#c9c2c2;fill-opacity:1;stroke:#234c58;stroke-width:0.240905;stroke-opacity:1"
         id="rect46-6-8"
         width="24.570034"
         height="47.866028"
         x="132.34105"
         y="246.79971" />
      <rect
         style="fill:#7f8c94;fill-opacity:1;stroke:#1a3840;stroke-width:0.240905;stroke-opacity:1"
         id="rect46-6-7-4"
         width="24.570034"
         height="47.866028"
         x="106.93247"
         y="246.79971" />
      <rect
         style="fill:#f0f4f5;fill-opacity:1;stroke:#0f1516;stroke-width:0.240905;stroke-opacity:1"
         id="rect46-74"
         width="24.570034"
         height="47.866028"
         x="183.1582"
         y="-294.66574"
         transform="scale(1,-1)" />
      <rect
         style="fill:#e8eff1;fill-opacity:1;stroke:#0f1516;stroke-width:0.240905;stroke-opacity:1"
         id="rect46-74-1"
         width="24.570034"
         height="47.866028"
         x="157.74963"
         y="-294.66574"
         transform="scale(1,-1)" />
      <ellipse
         id="path46"
         style="fill:#0f1516;stroke:#1a3840;stroke-width:0.240905"
         cx="62.048195"
         cy="270.73273"
         rx="0.046164621"
         ry="0.044164725" />
    </g>
  </g>
</svg>
